<svg xmlns="http://www.w3.org/2000/svg" width="51" height="45" viewBox="0 0 51 45">
  <path fill="#FFFFFF" fill-rule="evenodd" d="M118.114145,110.708354 L90.7196147,111.003642 C88.8363964,110.949836 87.5450467,108.959005 88.298334,107.237206 L102.018924,76.4600388 C102.180343,76.0833952 102.449374,75.7067515 102.772211,75.4915266 L111.488822,68.5505221 C111.488822,68.5505221 114.179134,66.3982727 116.761833,66.5596914 C119.129307,66.7211101 121.281557,69.2500032 121.6582,69.6266468 C121.712007,69.6804531 121.712007,69.6804531 121.765813,69.7342593 L133.81841,82.5401435 C134.195053,82.9167871 134.410278,83.4010432 134.517891,83.9391056 L138.230521,107.452431 C138.499552,109.066618 137.262009,110.519386 135.647822,110.519386 L133.543029,110.542092 L129.675329,87.4365109 L116.65422,73.3392771 L112.887784,91.5257849 L108.959929,95.9917025 C112.727172,95.6053199 117.231454,108.138299 118.114145,110.708354 L118.114145,110.708354 Z M125.226899,94.2936315 L124.454403,96.7609164 L122.173449,97.5644049 L129.536671,104.731288 L127.284934,107.044741 L118.057272,98.0631349 L118.646773,95.3839072 L121.345963,94.4330972 L115.799616,86.7496205 L118.417235,84.8601069 C120.687105,88.0045972 122.956975,91.1491412 125.226899,94.2936315 L125.226899,94.2936315 Z" transform="translate(-88 -66)"/>
</svg>
