<?xml version="1.0" encoding="UTF-8" standalone="no"?>
<svg width="65px" height="65px" viewBox="0 0 65 65" version="1.1" xmlns="http://www.w3.org/2000/svg" xmlns:xlink="http://www.w3.org/1999/xlink">
    <!-- Generator: Sketch 39.1 (31720) - http://www.bohemiancoding.com/sketch -->
    <title>facebook</title>
    <desc>Created with Sketch.</desc>
    <defs></defs>
    <g id="Page-1" stroke="none" stroke-width="1" fill="none" fill-rule="evenodd">
        <path d="M60.7552083,0.21875 C61.7274306,0.21875 62.5607639,0.5659722 63.2552083,1.2604167 C63.9496528,1.9548611 64.296875,2.7881944 64.296875,3.7604167 L64.296875,60.677083 C64.296875,61.649306 63.9496528,62.482639 63.2552083,63.177083 C62.5607639,63.871528 61.7274306,64.21875 60.7552083,64.21875 L44.4635417,64.21875 L44.4635417,39.4270833 L52.7552083,39.4270833 L54.0052083,29.7604167 L44.4635417,29.7604167 L44.4635417,23.59375 C44.4635417,22.0381944 44.7899306,20.8715278 45.4427083,20.09375 C46.0954861,19.3159722 47.3663194,18.9270833 49.2552083,18.9270833 L54.3385417,18.8854167 L54.3385417,10.2604167 C52.5885417,10.0104167 50.1163194,9.8854167 46.921875,9.8854167 C43.1440972,9.8854167 40.1232639,10.9965278 37.859375,13.21875 C35.5954861,15.4409722 34.4635417,18.5798611 34.4635417,22.6354167 L34.4635417,29.7604167 L26.1302083,29.7604167 L26.1302083,39.4270833 L34.4635417,39.4270833 L34.4635417,64.21875 L3.83854167,64.21875 C2.86631944,64.21875 2.03298611,63.871528 1.33854167,63.177083 C0.644097222,62.482639 0.296875,61.649306 0.296875,60.677083 L0.296875,3.7604167 C0.296875,2.7881944 0.644097222,1.9548611 1.33854167,1.2604167 C2.03298611,0.5659722 2.86631944,0.21875 3.83854167,0.21875 L60.7552083,0.21875 L60.7552083,0.21875 L60.7552083,0.21875 Z" id="facebook" fill="#FFFFFF"></path>
    </g>
</svg>