<?xml version="1.0" encoding="utf-8"?>
<!-- Generator: Adobe Illustrator 22.1.0, SVG Export Plug-In . SVG Version: 6.00 Build 0)  -->
<svg version="1.1" id="Layer_1" xmlns="http://www.w3.org/2000/svg" xmlns:xlink="http://www.w3.org/1999/xlink" x="0px" y="0px"
	 viewBox="0 0 24 24" style="enable-background:new 0 0 24 24;" xml:space="preserve">
<style type="text/css">
	.st0{fill:#FFFFFF;}
</style>
<path class="st0" d="M10.2,14.6c0.1,0.3,0.1,0.7,0.1,1c0,0.6-0.2,1.4-0.6,1.9c-0.2,0.3-0.5,0.4-0.8,0.4c-0.6,0-1.1-0.7-1.3-1.3
	c-0.1-0.3-0.1-0.7-0.1-1c0-0.6,0.2-1.4,0.6-1.9c0.2-0.3,0.5-0.4,0.8-0.4C9.5,13.3,10,13.9,10.2,14.6L10.2,14.6z M17.5,14.6
	c0.1,0.3,0.1,0.7,0.1,1c0,0.6-0.2,1.4-0.6,1.9c-0.2,0.3-0.5,0.4-0.8,0.4c-0.6,0-1.1-0.7-1.3-1.3c-0.1-0.3-0.1-0.7-0.1-1
	c0-0.6,0.2-1.4,0.6-1.9c0.2-0.3,0.5-0.4,0.8-0.4C16.8,13.3,17.3,13.9,17.5,14.6L17.5,14.6z M19.4,15.6c0-1.9-1.1-3.5-2.9-3.5
	c-0.3,0-1.1,0.1-2.2,0.3c-0.5,0.1-1.1,0.1-1.8,0.1c-0.7,0-1.3,0-1.8-0.1c-1.2-0.2-1.9-0.3-2.2-0.3c-1.8,0-2.9,1.5-2.9,3.5
	c0,1.4,0.5,2.5,1.3,3.1c0.7,0.6,2,1,3,1.1c0.5,0.1,1.1,0.1,1.7,0.1h1.9c1.2,0,2.2-0.1,3.3-0.4c1.1-0.4,1.8-0.9,2.3-2
	C19.3,16.9,19.4,16.3,19.4,15.6L19.4,15.6z M22,13.5c0,1.7-0.2,3-0.7,4c-0.6,1.2-1.7,2.2-2.8,2.6c-1.1,0.5-2.8,0.8-3.9,0.8
	C14,21,13.4,21,12.7,21c-1.2,0-2,0-3.3-0.2c-1.3-0.1-2.3-0.5-3.3-1c-1-0.5-1.9-1.3-2.4-2.4c-0.5-1-0.7-2.3-0.7-4
	c0-1.9,0.5-3.5,1.6-4.8C4.3,8,4.2,7.3,4.2,6.6c0-0.9,0.2-1.8,0.6-2.6c1.6,0,2.7,0.6,4.3,2c1.1-0.3,2.3-0.4,3.5-0.4
	c1.1,0,2.2,0.1,3.2,0.4C17.5,4.6,18.5,4,20.2,4c0.4,0.8,0.6,1.7,0.6,2.6c0,0.7-0.1,1.4-0.3,2C21.5,10,22,11.5,22,13.5L22,13.5z"/>
</svg>
