<svg xmlns="http://www.w3.org/2000/svg" width="24" height="24" viewBox="0 0 24 24">
  <path fill="#000000" fill-rule="evenodd" d="M10.1680667,14.6020482 C10.2542,14.9393551 10.3036,15.2685015 10.3036,15.5922074 C10.3036,16.2341787 10.1326,16.9577566 9.67533333,17.50044 C9.43593333,17.775182 9.16106667,17.9084727 8.84186667,17.9084727 C8.20346667,17.9084727 7.71326667,17.2556204 7.52833333,16.5796464 C7.42446667,16.2436995 7.38013333,15.9131931 7.38013333,15.5922074 C7.38013333,14.9515961 7.55113333,14.225298 8.01853333,13.6839747 C8.24906667,13.4078726 8.52266667,13.2773022 8.84186667,13.2773022 C9.4828,13.2759421 9.97426667,13.9274342 10.1680667,14.6020482 L10.1680667,14.6020482 Z M17.478,14.6020482 C17.5692,14.9393551 17.6135333,15.2685015 17.6135333,15.5922074 C17.6135333,16.2341787 17.4463333,16.9577566 16.9827333,17.50044 C16.7446,17.775182 16.4684667,17.9084727 16.1518,17.9084727 C15.5197333,17.9084727 15.0257333,17.2556204 14.837,16.5796464 C14.7344,16.2436995 14.6888,15.9131931 14.6888,15.5922074 C14.6888,14.9515961 14.8598,14.225298 15.3284667,13.6839747 C15.559,13.4092327 15.8338667,13.2786623 16.1530667,13.2786623 C16.7914667,13.2759421 17.2829333,13.9274342 17.478,14.6020482 L17.478,14.6020482 Z M19.4388,15.5935675 C19.4388,13.6635731 18.3127333,12.1157693 16.5140667,12.1157693 C16.205,12.1157693 15.4627333,12.2068966 14.2872667,12.3660293 C13.7527333,12.4530762 13.1447333,12.4993199 12.4936667,12.4993199 C11.8375333,12.4993199 11.2371333,12.4530762 10.7000667,12.3660293 C9.54866667,12.1960157 8.8064,12.1157693 8.47326667,12.1157693 C6.67966667,12.1157693 5.5498,13.662213 5.5498,15.5935675 C5.5498,17.0067205 6.09826667,18.0825666 6.84053333,18.6864549 C7.5828,19.2957837 8.81653333,19.6670934 9.8324,19.7718217 C10.3454,19.8357469 10.9090667,19.8602288 11.5335333,19.8602288 L13.4512667,19.8602288 C14.7002,19.8602288 15.6426,19.7718217 16.7547333,19.412753 C17.8618,19.0509641 18.5825333,18.5096408 19.0676667,17.4419554 C19.3146667,16.9196736 19.4388,16.3035443 19.4388,15.5935675 L19.4388,15.5935675 Z M22,13.4649972 C22,15.1311305 21.7682,16.4613169 21.3033333,17.462357 C20.7206667,18.7054964 19.6085333,19.6222098 18.4938667,20.1064085 C17.3741333,20.5906072 15.7325333,20.8680694 14.5887333,20.9401552 C14.0174667,20.9782383 13.3778,21 12.6811333,21 C11.493,21 10.6481333,20.9646372 9.3802,20.8068645 C8.10086667,20.662693 7.1078,20.3226658 6.06786667,19.8262261 C5.0292,19.3325066 4.20713333,18.5082807 3.70553333,17.4582767 C3.23813333,16.4721978 3,15.1433715 3,13.4649972 C3,11.5567645 3.513,9.96543723 4.55293333,8.68421474 C4.34266667,8.01776142 4.24386667,7.34178734 4.24386667,6.63045044 C4.24386667,5.70149612 4.43766667,4.81334507 4.82653333,4 C6.47066667,4 7.5144,4.61476918 9.14713333,5.97079766 C10.2732,5.69605568 11.4410667,5.54644372 12.6735333,5.54644372 C13.8034,5.54644372 14.8636,5.67973438 15.8731333,5.93135451 C17.4704,4.61204896 18.5331333,4.00136011 20.1658667,4.00136011 C20.5496667,4.82558605 20.7472667,5.70421634 20.7472667,6.63181054 C20.7472667,7.32682615 20.6421333,8.00552044 20.4382,8.65973278 C21.4857333,9.95319626 22,11.5486039 22,13.4649972 L22,13.4649972 Z"/>
</svg>
