<?xml version="1.0" encoding="utf-8"?>
<!-- Generator: Adobe Illustrator 22.1.0, SVG Export Plug-In . SVG Version: 6.00 Build 0)  -->
<svg version="1.1" id="Layer_1" xmlns="http://www.w3.org/2000/svg" xmlns:xlink="http://www.w3.org/1999/xlink" x="0px" y="0px"
	 viewBox="0 0 26.3 24" style="enable-background:new 0 0 26.3 24;" xml:space="preserve">
<style type="text/css">
	.st0{fill:#FFFFFF;}
</style>
<title>Logo</title>
<desc>Created with Sketch.</desc>
<g id="Bedrock---Homepage" transform="translate(-131.000000, -28.000000)">
	<g id="Hero">
		<g id="Menu">
			<g id="Logo" transform="translate(128.000000, 24.000000)">
				<g id="Mark">
					<path id="Icon" class="st0" d="M24.3,15.1c1-1.2,1.7-2.7,1.7-4.4C26,7,23,4,19.3,4h-16v2.7h16c2.2,0,4,1.8,4,4c0,2.2-1.8,4-4,4
						H8.7v2.7H22c2.2,0,4,1.8,4,4c0,2.2-1.8,4-4,4H3.3V28H22c3.7,0,6.7-3,6.7-6.7C28.7,18.5,26.8,16,24.3,15.1z M6,22.7h8V20H6V22.7
						z M6,12h8V9.3H6V12z"/>
				</g>
			</g>
		</g>
	</g>
</g>
</svg>
