<?xml version="1.0" encoding="utf-8"?>
<!-- Generator: Adobe Illustrator 20.1.0, SVG Export Plug-In . SVG Version: 6.00 Build 0)  -->
<svg version="1.1" id="Layer_1" xmlns="http://www.w3.org/2000/svg" xmlns:xlink="http://www.w3.org/1999/xlink" x="0px" y="0px"
	 width="66px" height="54px" viewBox="0 0 66 54" style="enable-background:new 0 0 66 54;" xml:space="preserve">
<style type="text/css">
	.st0{fill:#FFFFFF;}
</style>
<title>twitter</title>
<desc>Created with Sketch.</desc>
<path class="st0" d="M22.1,46c0,3.9-3.1,7.1-7,7.1c-3.9,0-7-3.2-7-7.1s3.1-7.1,7-7.1C19,38.9,22.1,42.1,22.1,46"/>
<path class="st0" d="M42.1,53.1h-10c0-13.4-10.8-24.3-24-24.3V18.7C26.8,18.7,42.1,34.1,42.1,53.1z"/>
<path class="st0" d="M49.1,53.1c0-22.9-18.4-41.5-41-41.5V1.3c28.3,0,51.3,23.2,51.3,51.8H49.1z"/>
</svg>
