<?xml version="1.0" encoding="UTF-8" standalone="no"?>
<svg width="66px" height="54px" viewBox="0 0 66 54" version="1.1" xmlns="http://www.w3.org/2000/svg" xmlns:xlink="http://www.w3.org/1999/xlink">
    <!-- Generator: Sketch 39.1 (31720) - http://www.bohemiancoding.com/sketch -->
    <title>twitter</title>
    <desc>Created with Sketch.</desc>
    <defs></defs>
    <g id="Page-1" stroke="none" stroke-width="1" fill="none" fill-rule="evenodd">
        <path d="M66,10.4716664 C63.57054,11.5485402 60.963705,12.2747076 58.22487,12.6047839 C61.021455,10.929647 63.16629,4.15070782 64.1768737,0.990228525 C61.5617888,2.54158657 58.6620787,3.66797145 55.576785,4.27448629 C53.106075,1.64212909 49.5876563,0 45.6939037,0 C38.2157325,0 32.1523537,6.06102379 32.1523537,13.5372489 C32.1523537,14.5976185 32.2719787,15.6332327 32.5029787,16.6234613 C21.254805,16.0540797 11.2770487,10.6655864 4.59908625,2.47557131 C3.43179375,4.47253207 2.763585,6.79956915 2.763585,9.27926629 C2.763585,13.9745999 5.151795,18.1211819 8.78571375,20.5472417 C6.5665875,20.4771006 4.47946125,19.8664595 2.65221,18.8556015 L2.65221,19.0247652 C2.65221,25.5850291 7.32142125,31.0560418 13.512675,32.3020793 C12.3783413,32.6115257 11.1821737,32.776564 9.94888125,32.776564 C9.0785475,32.776564 8.22888,32.6899188 7.39979625,32.5331325 C9.1239225,37.9133741 14.1231338,41.8247767 20.0462625,41.9361777 C15.4141762,45.5670155 9.57350625,47.7331404 3.22966875,47.7331404 C2.13662625,47.7331404 1.0600425,47.671251 0,47.5433467 C5.99325375,51.3846081 13.108425,53.625 20.7557213,53.625 C45.6609038,53.625 59.2807875,37.1211914 59.2807875,19.2310631 C59.2807875,18.6451778 59.2684125,18.0592925 59.2395375,17.4816592 C61.8876225,15.5713433 64.1851238,13.186543 66,10.4716664 L66,10.4716664 L66,10.4716664 Z" id="twitter" fill="#FFFFFF"></path>
    </g>
</svg>